<mxfile host="app.diagrams.net" modified="2024-02-17T11:27:57.657Z" agent="Mozilla/5.0 (Windows NT 10.0; Win64; x64; rv:122.0) Gecko/20100101 Firefox/122.0" etag="0-jG8mYzHa0IN6SKvrZg" version="23.1.5" type="device" pages="2">
  <diagram name="BazaDanych" id="FE-UaPLoinVzxtkcqCqW">
    <mxGraphModel dx="2261" dy="782" grid="1" gridSize="10" guides="1" tooltips="1" connect="1" arrows="1" fold="1" page="1" pageScale="1" pageWidth="827" pageHeight="1169" math="0" shadow="0">
      <root>
        <mxCell id="0" />
        <mxCell id="1" parent="0" />
        <mxCell id="zb_-WWk2M0aDRhid1Z1n-62" style="edgeStyle=orthogonalEdgeStyle;rounded=0;orthogonalLoop=1;jettySize=auto;html=1;entryX=1;entryY=0.5;entryDx=0;entryDy=0;" edge="1" parent="1" source="zb_-WWk2M0aDRhid1Z1n-1" target="zb_-WWk2M0aDRhid1Z1n-59">
          <mxGeometry relative="1" as="geometry">
            <Array as="points">
              <mxPoint x="405" y="480" />
              <mxPoint x="480" y="480" />
              <mxPoint x="480" y="600" />
            </Array>
          </mxGeometry>
        </mxCell>
        <mxCell id="zb_-WWk2M0aDRhid1Z1n-1" value="Surowce" style="swimlane;fontStyle=0;childLayout=stackLayout;horizontal=1;startSize=30;horizontalStack=0;resizeParent=1;resizeParentMax=0;resizeLast=0;collapsible=1;marginBottom=0;whiteSpace=wrap;html=1;fontSize=24;" vertex="1" parent="1">
          <mxGeometry x="320" y="320" width="170" height="90" as="geometry" />
        </mxCell>
        <mxCell id="zb_-WWk2M0aDRhid1Z1n-2" value="surowiecId" style="text;strokeColor=none;fillColor=none;align=left;verticalAlign=middle;spacingLeft=4;spacingRight=4;overflow=hidden;points=[[0,0.5],[1,0.5]];portConstraint=eastwest;rotatable=0;whiteSpace=wrap;html=1;fontSize=18;" vertex="1" parent="zb_-WWk2M0aDRhid1Z1n-1">
          <mxGeometry y="30" width="170" height="30" as="geometry" />
        </mxCell>
        <mxCell id="zb_-WWk2M0aDRhid1Z1n-3" value="nazwa" style="text;strokeColor=none;fillColor=none;align=left;verticalAlign=middle;spacingLeft=4;spacingRight=4;overflow=hidden;points=[[0,0.5],[1,0.5]];portConstraint=eastwest;rotatable=0;whiteSpace=wrap;html=1;fontSize=18;" vertex="1" parent="zb_-WWk2M0aDRhid1Z1n-1">
          <mxGeometry y="60" width="170" height="30" as="geometry" />
        </mxCell>
        <mxCell id="zb_-WWk2M0aDRhid1Z1n-5" value="&lt;div&gt;Baza&lt;/div&gt;&lt;div&gt;danych&lt;/div&gt;" style="shape=cylinder3;whiteSpace=wrap;html=1;boundedLbl=1;backgroundOutline=1;size=15;fontSize=24;" vertex="1" parent="1">
          <mxGeometry x="-170" width="150" height="130" as="geometry" />
        </mxCell>
        <mxCell id="zb_-WWk2M0aDRhid1Z1n-6" value="Dokument" style="shape=document;whiteSpace=wrap;html=1;boundedLbl=1;fontSize=24;" vertex="1" parent="1">
          <mxGeometry x="560" width="200" height="80" as="geometry" />
        </mxCell>
        <mxCell id="zb_-WWk2M0aDRhid1Z1n-7" value="List przewozowy" style="swimlane;fontStyle=0;childLayout=stackLayout;horizontal=1;startSize=30;horizontalStack=0;resizeParent=1;resizeParentMax=0;resizeLast=0;collapsible=1;marginBottom=0;whiteSpace=wrap;html=1;fontSize=24;" vertex="1" parent="1">
          <mxGeometry x="520" y="160" width="360" height="180" as="geometry" />
        </mxCell>
        <mxCell id="zb_-WWk2M0aDRhid1Z1n-8" value="Numer" style="text;strokeColor=none;fillColor=none;align=left;verticalAlign=middle;spacingLeft=4;spacingRight=4;overflow=hidden;points=[[0,0.5],[1,0.5]];portConstraint=eastwest;rotatable=0;whiteSpace=wrap;html=1;fontSize=18;" vertex="1" parent="zb_-WWk2M0aDRhid1Z1n-7">
          <mxGeometry y="30" width="360" height="30" as="geometry" />
        </mxCell>
        <mxCell id="zb_-WWk2M0aDRhid1Z1n-9" value="Data" style="text;strokeColor=none;fillColor=none;align=left;verticalAlign=middle;spacingLeft=4;spacingRight=4;overflow=hidden;points=[[0,0.5],[1,0.5]];portConstraint=eastwest;rotatable=0;whiteSpace=wrap;html=1;fontSize=18;" vertex="1" parent="zb_-WWk2M0aDRhid1Z1n-7">
          <mxGeometry y="60" width="360" height="30" as="geometry" />
        </mxCell>
        <mxCell id="zb_-WWk2M0aDRhid1Z1n-10" value="Surowiec A, ilość" style="text;strokeColor=none;fillColor=none;align=left;verticalAlign=middle;spacingLeft=4;spacingRight=4;overflow=hidden;points=[[0,0.5],[1,0.5]];portConstraint=eastwest;rotatable=0;whiteSpace=wrap;html=1;fontSize=18;" vertex="1" parent="zb_-WWk2M0aDRhid1Z1n-7">
          <mxGeometry y="90" width="360" height="30" as="geometry" />
        </mxCell>
        <mxCell id="zb_-WWk2M0aDRhid1Z1n-12" value="Surowiec B, ilość" style="text;strokeColor=none;fillColor=none;align=left;verticalAlign=middle;spacingLeft=4;spacingRight=4;overflow=hidden;points=[[0,0.5],[1,0.5]];portConstraint=eastwest;rotatable=0;whiteSpace=wrap;html=1;fontSize=18;" vertex="1" parent="zb_-WWk2M0aDRhid1Z1n-7">
          <mxGeometry y="120" width="360" height="30" as="geometry" />
        </mxCell>
        <mxCell id="zb_-WWk2M0aDRhid1Z1n-11" value="Surowiec C, ilość" style="text;strokeColor=none;fillColor=none;align=left;verticalAlign=middle;spacingLeft=4;spacingRight=4;overflow=hidden;points=[[0,0.5],[1,0.5]];portConstraint=eastwest;rotatable=0;whiteSpace=wrap;html=1;fontSize=18;" vertex="1" parent="zb_-WWk2M0aDRhid1Z1n-7">
          <mxGeometry y="150" width="360" height="30" as="geometry" />
        </mxCell>
        <mxCell id="zb_-WWk2M0aDRhid1Z1n-13" value="Stan surowców w magazynie" style="swimlane;fontStyle=0;childLayout=stackLayout;horizontal=1;startSize=30;horizontalStack=0;resizeParent=1;resizeParentMax=0;resizeLast=0;collapsible=1;marginBottom=0;whiteSpace=wrap;html=1;fontSize=24;" vertex="1" parent="1">
          <mxGeometry x="520" y="360" width="360" height="150" as="geometry" />
        </mxCell>
        <mxCell id="zb_-WWk2M0aDRhid1Z1n-19" value="Data" style="text;strokeColor=none;fillColor=none;align=left;verticalAlign=middle;spacingLeft=4;spacingRight=4;overflow=hidden;points=[[0,0.5],[1,0.5]];portConstraint=eastwest;rotatable=0;whiteSpace=wrap;html=1;fontSize=18;" vertex="1" parent="zb_-WWk2M0aDRhid1Z1n-13">
          <mxGeometry y="30" width="360" height="30" as="geometry" />
        </mxCell>
        <mxCell id="zb_-WWk2M0aDRhid1Z1n-16" value="Surowiec A, ilość/maksimum" style="text;strokeColor=none;fillColor=none;align=left;verticalAlign=middle;spacingLeft=4;spacingRight=4;overflow=hidden;points=[[0,0.5],[1,0.5]];portConstraint=eastwest;rotatable=0;whiteSpace=wrap;html=1;fontSize=18;" vertex="1" parent="zb_-WWk2M0aDRhid1Z1n-13">
          <mxGeometry y="60" width="360" height="30" as="geometry" />
        </mxCell>
        <mxCell id="zb_-WWk2M0aDRhid1Z1n-17" value="Surowiec B, ilość/maksimum" style="text;strokeColor=none;fillColor=none;align=left;verticalAlign=middle;spacingLeft=4;spacingRight=4;overflow=hidden;points=[[0,0.5],[1,0.5]];portConstraint=eastwest;rotatable=0;whiteSpace=wrap;html=1;fontSize=18;" vertex="1" parent="zb_-WWk2M0aDRhid1Z1n-13">
          <mxGeometry y="90" width="360" height="30" as="geometry" />
        </mxCell>
        <mxCell id="zb_-WWk2M0aDRhid1Z1n-18" value="Surowiec C, ilość/maksimum" style="text;strokeColor=none;fillColor=none;align=left;verticalAlign=middle;spacingLeft=4;spacingRight=4;overflow=hidden;points=[[0,0.5],[1,0.5]];portConstraint=eastwest;rotatable=0;whiteSpace=wrap;html=1;fontSize=18;" vertex="1" parent="zb_-WWk2M0aDRhid1Z1n-13">
          <mxGeometry y="120" width="360" height="30" as="geometry" />
        </mxCell>
        <mxCell id="zb_-WWk2M0aDRhid1Z1n-20" value="Zapotrzebowanie na surowce" style="swimlane;fontStyle=0;childLayout=stackLayout;horizontal=1;startSize=30;horizontalStack=0;resizeParent=1;resizeParentMax=0;resizeLast=0;collapsible=1;marginBottom=0;whiteSpace=wrap;html=1;fontSize=24;" vertex="1" parent="1">
          <mxGeometry x="520" y="530" width="360" height="150" as="geometry" />
        </mxCell>
        <mxCell id="zb_-WWk2M0aDRhid1Z1n-21" value="Data" style="text;strokeColor=none;fillColor=none;align=left;verticalAlign=middle;spacingLeft=4;spacingRight=4;overflow=hidden;points=[[0,0.5],[1,0.5]];portConstraint=eastwest;rotatable=0;whiteSpace=wrap;html=1;fontSize=18;" vertex="1" parent="zb_-WWk2M0aDRhid1Z1n-20">
          <mxGeometry y="30" width="360" height="30" as="geometry" />
        </mxCell>
        <mxCell id="zb_-WWk2M0aDRhid1Z1n-22" value="Surowiec A, ilość" style="text;strokeColor=none;fillColor=none;align=left;verticalAlign=middle;spacingLeft=4;spacingRight=4;overflow=hidden;points=[[0,0.5],[1,0.5]];portConstraint=eastwest;rotatable=0;whiteSpace=wrap;html=1;fontSize=18;" vertex="1" parent="zb_-WWk2M0aDRhid1Z1n-20">
          <mxGeometry y="60" width="360" height="30" as="geometry" />
        </mxCell>
        <mxCell id="zb_-WWk2M0aDRhid1Z1n-23" value="Surowiec B, ilość" style="text;strokeColor=none;fillColor=none;align=left;verticalAlign=middle;spacingLeft=4;spacingRight=4;overflow=hidden;points=[[0,0.5],[1,0.5]];portConstraint=eastwest;rotatable=0;whiteSpace=wrap;html=1;fontSize=18;" vertex="1" parent="zb_-WWk2M0aDRhid1Z1n-20">
          <mxGeometry y="90" width="360" height="30" as="geometry" />
        </mxCell>
        <mxCell id="zb_-WWk2M0aDRhid1Z1n-24" value="Surowiec C, ilość" style="text;strokeColor=none;fillColor=none;align=left;verticalAlign=middle;spacingLeft=4;spacingRight=4;overflow=hidden;points=[[0,0.5],[1,0.5]];portConstraint=eastwest;rotatable=0;whiteSpace=wrap;html=1;fontSize=18;" vertex="1" parent="zb_-WWk2M0aDRhid1Z1n-20">
          <mxGeometry y="120" width="360" height="30" as="geometry" />
        </mxCell>
        <mxCell id="zb_-WWk2M0aDRhid1Z1n-25" value="Zamówienie na surowce" style="swimlane;fontStyle=0;childLayout=stackLayout;horizontal=1;startSize=30;horizontalStack=0;resizeParent=1;resizeParentMax=0;resizeLast=0;collapsible=1;marginBottom=0;whiteSpace=wrap;html=1;fontSize=24;" vertex="1" parent="1">
          <mxGeometry x="520" y="700" width="360" height="180" as="geometry" />
        </mxCell>
        <mxCell id="zb_-WWk2M0aDRhid1Z1n-26" value="Numer" style="text;strokeColor=none;fillColor=none;align=left;verticalAlign=middle;spacingLeft=4;spacingRight=4;overflow=hidden;points=[[0,0.5],[1,0.5]];portConstraint=eastwest;rotatable=0;whiteSpace=wrap;html=1;fontSize=18;" vertex="1" parent="zb_-WWk2M0aDRhid1Z1n-25">
          <mxGeometry y="30" width="360" height="30" as="geometry" />
        </mxCell>
        <mxCell id="zb_-WWk2M0aDRhid1Z1n-27" value="Data" style="text;strokeColor=none;fillColor=none;align=left;verticalAlign=middle;spacingLeft=4;spacingRight=4;overflow=hidden;points=[[0,0.5],[1,0.5]];portConstraint=eastwest;rotatable=0;whiteSpace=wrap;html=1;fontSize=18;" vertex="1" parent="zb_-WWk2M0aDRhid1Z1n-25">
          <mxGeometry y="60" width="360" height="30" as="geometry" />
        </mxCell>
        <mxCell id="zb_-WWk2M0aDRhid1Z1n-28" value="Surowiec A, ilość" style="text;strokeColor=none;fillColor=none;align=left;verticalAlign=middle;spacingLeft=4;spacingRight=4;overflow=hidden;points=[[0,0.5],[1,0.5]];portConstraint=eastwest;rotatable=0;whiteSpace=wrap;html=1;fontSize=18;" vertex="1" parent="zb_-WWk2M0aDRhid1Z1n-25">
          <mxGeometry y="90" width="360" height="30" as="geometry" />
        </mxCell>
        <mxCell id="zb_-WWk2M0aDRhid1Z1n-29" value="Surowiec B, ilość" style="text;strokeColor=none;fillColor=none;align=left;verticalAlign=middle;spacingLeft=4;spacingRight=4;overflow=hidden;points=[[0,0.5],[1,0.5]];portConstraint=eastwest;rotatable=0;whiteSpace=wrap;html=1;fontSize=18;" vertex="1" parent="zb_-WWk2M0aDRhid1Z1n-25">
          <mxGeometry y="120" width="360" height="30" as="geometry" />
        </mxCell>
        <mxCell id="zb_-WWk2M0aDRhid1Z1n-30" value="Surowiec C, ilość" style="text;strokeColor=none;fillColor=none;align=left;verticalAlign=middle;spacingLeft=4;spacingRight=4;overflow=hidden;points=[[0,0.5],[1,0.5]];portConstraint=eastwest;rotatable=0;whiteSpace=wrap;html=1;fontSize=18;" vertex="1" parent="zb_-WWk2M0aDRhid1Z1n-25">
          <mxGeometry y="150" width="360" height="30" as="geometry" />
        </mxCell>
        <mxCell id="zb_-WWk2M0aDRhid1Z1n-31" value="MagazynSurowcow" style="swimlane;fontStyle=0;childLayout=stackLayout;horizontal=1;startSize=30;horizontalStack=0;resizeParent=1;resizeParentMax=0;resizeLast=0;collapsible=1;marginBottom=0;whiteSpace=wrap;html=1;fontSize=24;" vertex="1" parent="1">
          <mxGeometry x="-250" y="170" width="360" height="120" as="geometry" />
        </mxCell>
        <mxCell id="zb_-WWk2M0aDRhid1Z1n-32" value="idSurowca" style="text;strokeColor=none;fillColor=none;align=left;verticalAlign=middle;spacingLeft=4;spacingRight=4;overflow=hidden;points=[[0,0.5],[1,0.5]];portConstraint=eastwest;rotatable=0;whiteSpace=wrap;html=1;fontSize=18;" vertex="1" parent="zb_-WWk2M0aDRhid1Z1n-31">
          <mxGeometry y="30" width="360" height="30" as="geometry" />
        </mxCell>
        <mxCell id="zb_-WWk2M0aDRhid1Z1n-33" value="ilosc" style="text;strokeColor=none;fillColor=none;align=left;verticalAlign=middle;spacingLeft=4;spacingRight=4;overflow=hidden;points=[[0,0.5],[1,0.5]];portConstraint=eastwest;rotatable=0;whiteSpace=wrap;html=1;fontSize=18;" vertex="1" parent="zb_-WWk2M0aDRhid1Z1n-31">
          <mxGeometry y="60" width="360" height="30" as="geometry" />
        </mxCell>
        <mxCell id="zb_-WWk2M0aDRhid1Z1n-34" value="maksimum" style="text;strokeColor=none;fillColor=none;align=left;verticalAlign=middle;spacingLeft=4;spacingRight=4;overflow=hidden;points=[[0,0.5],[1,0.5]];portConstraint=eastwest;rotatable=0;whiteSpace=wrap;html=1;fontSize=18;" vertex="1" parent="zb_-WWk2M0aDRhid1Z1n-31">
          <mxGeometry y="90" width="360" height="30" as="geometry" />
        </mxCell>
        <mxCell id="zb_-WWk2M0aDRhid1Z1n-35" style="edgeStyle=orthogonalEdgeStyle;rounded=0;orthogonalLoop=1;jettySize=auto;html=1;entryX=1;entryY=0.5;entryDx=0;entryDy=0;" edge="1" parent="1" source="zb_-WWk2M0aDRhid1Z1n-2" target="zb_-WWk2M0aDRhid1Z1n-32">
          <mxGeometry relative="1" as="geometry" />
        </mxCell>
        <mxCell id="zb_-WWk2M0aDRhid1Z1n-37" value="EwidencjaSurowcow" style="swimlane;fontStyle=0;childLayout=stackLayout;horizontal=1;startSize=30;horizontalStack=0;resizeParent=1;resizeParentMax=0;resizeLast=0;collapsible=1;marginBottom=0;whiteSpace=wrap;html=1;fontSize=24;" vertex="1" parent="1">
          <mxGeometry x="-250" y="330" width="360" height="240" as="geometry" />
        </mxCell>
        <mxCell id="zb_-WWk2M0aDRhid1Z1n-56" value="ewidencjaSurowcowId" style="text;strokeColor=none;fillColor=none;align=left;verticalAlign=middle;spacingLeft=4;spacingRight=4;overflow=hidden;points=[[0,0.5],[1,0.5]];portConstraint=eastwest;rotatable=0;whiteSpace=wrap;html=1;fontSize=18;" vertex="1" parent="zb_-WWk2M0aDRhid1Z1n-37">
          <mxGeometry y="30" width="360" height="30" as="geometry" />
        </mxCell>
        <mxCell id="zb_-WWk2M0aDRhid1Z1n-38" value="idOperacji" style="text;strokeColor=none;fillColor=none;align=left;verticalAlign=middle;spacingLeft=4;spacingRight=4;overflow=hidden;points=[[0,0.5],[1,0.5]];portConstraint=eastwest;rotatable=0;whiteSpace=wrap;html=1;fontSize=18;" vertex="1" parent="zb_-WWk2M0aDRhid1Z1n-37">
          <mxGeometry y="60" width="360" height="30" as="geometry" />
        </mxCell>
        <mxCell id="zb_-WWk2M0aDRhid1Z1n-45" value="idDokumentuOperacji" style="text;strokeColor=none;fillColor=none;align=left;verticalAlign=middle;spacingLeft=4;spacingRight=4;overflow=hidden;points=[[0,0.5],[1,0.5]];portConstraint=eastwest;rotatable=0;whiteSpace=wrap;html=1;fontSize=18;" vertex="1" parent="zb_-WWk2M0aDRhid1Z1n-37">
          <mxGeometry y="90" width="360" height="30" as="geometry" />
        </mxCell>
        <mxCell id="zb_-WWk2M0aDRhid1Z1n-75" value="opis (jakie surowce i ile)" style="text;strokeColor=none;fillColor=none;align=left;verticalAlign=middle;spacingLeft=4;spacingRight=4;overflow=hidden;points=[[0,0.5],[1,0.5]];portConstraint=eastwest;rotatable=0;whiteSpace=wrap;html=1;fontSize=18;" vertex="1" parent="zb_-WWk2M0aDRhid1Z1n-37">
          <mxGeometry y="120" width="360" height="30" as="geometry" />
        </mxCell>
        <mxCell id="-TsuRlC8lxTKwq09Kx47-2" value="-idUzytkownika" style="text;strokeColor=none;fillColor=none;align=left;verticalAlign=middle;spacingLeft=4;spacingRight=4;overflow=hidden;points=[[0,0.5],[1,0.5]];portConstraint=eastwest;rotatable=0;whiteSpace=wrap;html=1;fontSize=18;" vertex="1" parent="zb_-WWk2M0aDRhid1Z1n-37">
          <mxGeometry y="150" width="360" height="30" as="geometry" />
        </mxCell>
        <mxCell id="-TsuRlC8lxTKwq09Kx47-1" value="nazwaUżytkownika" style="text;strokeColor=none;fillColor=none;align=left;verticalAlign=middle;spacingLeft=4;spacingRight=4;overflow=hidden;points=[[0,0.5],[1,0.5]];portConstraint=eastwest;rotatable=0;whiteSpace=wrap;html=1;fontSize=18;" vertex="1" parent="zb_-WWk2M0aDRhid1Z1n-37">
          <mxGeometry y="180" width="360" height="30" as="geometry" />
        </mxCell>
        <mxCell id="X6fDHpQkOrjlhq_C5Dwp-1" value="Kiedy" style="text;strokeColor=none;fillColor=none;align=left;verticalAlign=middle;spacingLeft=4;spacingRight=4;overflow=hidden;points=[[0,0.5],[1,0.5]];portConstraint=eastwest;rotatable=0;whiteSpace=wrap;html=1;fontSize=18;" vertex="1" parent="zb_-WWk2M0aDRhid1Z1n-37">
          <mxGeometry y="210" width="360" height="30" as="geometry" />
        </mxCell>
        <mxCell id="zb_-WWk2M0aDRhid1Z1n-44" style="edgeStyle=orthogonalEdgeStyle;rounded=0;orthogonalLoop=1;jettySize=auto;html=1;entryX=0;entryY=0.5;entryDx=0;entryDy=0;" edge="1" parent="1" source="zb_-WWk2M0aDRhid1Z1n-41" target="zb_-WWk2M0aDRhid1Z1n-38">
          <mxGeometry relative="1" as="geometry">
            <Array as="points">
              <mxPoint x="-475" y="360" />
              <mxPoint x="-290" y="360" />
              <mxPoint x="-290" y="405" />
            </Array>
          </mxGeometry>
        </mxCell>
        <mxCell id="zb_-WWk2M0aDRhid1Z1n-41" value="Operacje" style="swimlane;fontStyle=0;childLayout=stackLayout;horizontal=1;startSize=30;horizontalStack=0;resizeParent=1;resizeParentMax=0;resizeLast=0;collapsible=1;marginBottom=0;whiteSpace=wrap;html=1;fontSize=24;" vertex="1" parent="1">
          <mxGeometry x="-560" y="220" width="170" height="90" as="geometry" />
        </mxCell>
        <mxCell id="zb_-WWk2M0aDRhid1Z1n-42" value="operacjaId" style="text;strokeColor=none;fillColor=none;align=left;verticalAlign=middle;spacingLeft=4;spacingRight=4;overflow=hidden;points=[[0,0.5],[1,0.5]];portConstraint=eastwest;rotatable=0;whiteSpace=wrap;html=1;fontSize=18;" vertex="1" parent="zb_-WWk2M0aDRhid1Z1n-41">
          <mxGeometry y="30" width="170" height="30" as="geometry" />
        </mxCell>
        <mxCell id="zb_-WWk2M0aDRhid1Z1n-43" value="operacja" style="text;strokeColor=none;fillColor=none;align=left;verticalAlign=middle;spacingLeft=4;spacingRight=4;overflow=hidden;points=[[0,0.5],[1,0.5]];portConstraint=eastwest;rotatable=0;whiteSpace=wrap;html=1;fontSize=18;" vertex="1" parent="zb_-WWk2M0aDRhid1Z1n-41">
          <mxGeometry y="60" width="170" height="30" as="geometry" />
        </mxCell>
        <mxCell id="zb_-WWk2M0aDRhid1Z1n-46" value="DokumentOperacji" style="swimlane;fontStyle=0;childLayout=stackLayout;horizontal=1;startSize=30;horizontalStack=0;resizeParent=1;resizeParentMax=0;resizeLast=0;collapsible=1;marginBottom=0;whiteSpace=wrap;html=1;fontSize=24;" vertex="1" parent="1">
          <mxGeometry x="-790" y="345" width="230" height="120" as="geometry" />
        </mxCell>
        <mxCell id="zb_-WWk2M0aDRhid1Z1n-47" value="dokumentOperacjiId" style="text;strokeColor=none;fillColor=none;align=left;verticalAlign=middle;spacingLeft=4;spacingRight=4;overflow=hidden;points=[[0,0.5],[1,0.5]];portConstraint=eastwest;rotatable=0;whiteSpace=wrap;html=1;fontSize=18;" vertex="1" parent="zb_-WWk2M0aDRhid1Z1n-46">
          <mxGeometry y="30" width="230" height="30" as="geometry" />
        </mxCell>
        <mxCell id="zb_-WWk2M0aDRhid1Z1n-48" value="numer" style="text;strokeColor=none;fillColor=none;align=left;verticalAlign=middle;spacingLeft=4;spacingRight=4;overflow=hidden;points=[[0,0.5],[1,0.5]];portConstraint=eastwest;rotatable=0;whiteSpace=wrap;html=1;fontSize=18;" vertex="1" parent="zb_-WWk2M0aDRhid1Z1n-46">
          <mxGeometry y="60" width="230" height="30" as="geometry" />
        </mxCell>
        <mxCell id="zb_-WWk2M0aDRhid1Z1n-49" value="Data" style="text;strokeColor=none;fillColor=none;align=left;verticalAlign=middle;spacingLeft=4;spacingRight=4;overflow=hidden;points=[[0,0.5],[1,0.5]];portConstraint=eastwest;rotatable=0;whiteSpace=wrap;html=1;fontSize=18;" vertex="1" parent="zb_-WWk2M0aDRhid1Z1n-46">
          <mxGeometry y="90" width="230" height="30" as="geometry" />
        </mxCell>
        <mxCell id="zb_-WWk2M0aDRhid1Z1n-50" style="edgeStyle=orthogonalEdgeStyle;rounded=0;orthogonalLoop=1;jettySize=auto;html=1;entryX=0;entryY=0.5;entryDx=0;entryDy=0;" edge="1" parent="1" source="zb_-WWk2M0aDRhid1Z1n-48" target="zb_-WWk2M0aDRhid1Z1n-45">
          <mxGeometry relative="1" as="geometry" />
        </mxCell>
        <mxCell id="zb_-WWk2M0aDRhid1Z1n-57" value="OperacjeSurowce" style="swimlane;fontStyle=0;childLayout=stackLayout;horizontal=1;startSize=30;horizontalStack=0;resizeParent=1;resizeParentMax=0;resizeLast=0;collapsible=1;marginBottom=0;whiteSpace=wrap;html=1;fontSize=24;" vertex="1" parent="1">
          <mxGeometry x="170" y="525" width="240" height="120" as="geometry" />
        </mxCell>
        <mxCell id="zb_-WWk2M0aDRhid1Z1n-58" value="idEwidencjaSurowcow" style="text;strokeColor=none;fillColor=none;align=left;verticalAlign=middle;spacingLeft=4;spacingRight=4;overflow=hidden;points=[[0,0.5],[1,0.5]];portConstraint=eastwest;rotatable=0;whiteSpace=wrap;html=1;fontSize=18;" vertex="1" parent="zb_-WWk2M0aDRhid1Z1n-57">
          <mxGeometry y="30" width="240" height="30" as="geometry" />
        </mxCell>
        <mxCell id="zb_-WWk2M0aDRhid1Z1n-59" value="idSurowca" style="text;strokeColor=none;fillColor=none;align=left;verticalAlign=middle;spacingLeft=4;spacingRight=4;overflow=hidden;points=[[0,0.5],[1,0.5]];portConstraint=eastwest;rotatable=0;whiteSpace=wrap;html=1;fontSize=18;" vertex="1" parent="zb_-WWk2M0aDRhid1Z1n-57">
          <mxGeometry y="60" width="240" height="30" as="geometry" />
        </mxCell>
        <mxCell id="zb_-WWk2M0aDRhid1Z1n-60" value="ilosc" style="text;strokeColor=none;fillColor=none;align=left;verticalAlign=middle;spacingLeft=4;spacingRight=4;overflow=hidden;points=[[0,0.5],[1,0.5]];portConstraint=eastwest;rotatable=0;whiteSpace=wrap;html=1;fontSize=18;" vertex="1" parent="zb_-WWk2M0aDRhid1Z1n-57">
          <mxGeometry y="90" width="240" height="30" as="geometry" />
        </mxCell>
        <mxCell id="zb_-WWk2M0aDRhid1Z1n-61" style="edgeStyle=orthogonalEdgeStyle;rounded=0;orthogonalLoop=1;jettySize=auto;html=1;entryX=1;entryY=0.5;entryDx=0;entryDy=0;" edge="1" parent="1" source="zb_-WWk2M0aDRhid1Z1n-58" target="zb_-WWk2M0aDRhid1Z1n-56">
          <mxGeometry relative="1" as="geometry" />
        </mxCell>
        <mxCell id="zb_-WWk2M0aDRhid1Z1n-64" value="Wykaz operacji na surowcach" style="swimlane;fontStyle=0;childLayout=stackLayout;horizontal=1;startSize=30;horizontalStack=0;resizeParent=1;resizeParentMax=0;resizeLast=0;collapsible=1;marginBottom=0;whiteSpace=wrap;html=1;fontSize=24;" vertex="1" parent="1">
          <mxGeometry x="520" y="900" width="360" height="240" as="geometry" />
        </mxCell>
        <mxCell id="zb_-WWk2M0aDRhid1Z1n-70" value="- ewidencjaSurowcówId" style="text;strokeColor=none;fillColor=none;align=left;verticalAlign=middle;spacingLeft=4;spacingRight=4;overflow=hidden;points=[[0,0.5],[1,0.5]];portConstraint=eastwest;rotatable=0;whiteSpace=wrap;html=1;fontSize=18;" vertex="1" parent="zb_-WWk2M0aDRhid1Z1n-64">
          <mxGeometry y="30" width="360" height="30" as="geometry" />
        </mxCell>
        <mxCell id="zb_-WWk2M0aDRhid1Z1n-71" value="- idOperacji" style="text;strokeColor=none;fillColor=none;align=left;verticalAlign=middle;spacingLeft=4;spacingRight=4;overflow=hidden;points=[[0,0.5],[1,0.5]];portConstraint=eastwest;rotatable=0;whiteSpace=wrap;html=1;fontSize=18;" vertex="1" parent="zb_-WWk2M0aDRhid1Z1n-64">
          <mxGeometry y="60" width="360" height="30" as="geometry" />
        </mxCell>
        <mxCell id="zb_-WWk2M0aDRhid1Z1n-72" value="operacja" style="text;strokeColor=none;fillColor=none;align=left;verticalAlign=middle;spacingLeft=4;spacingRight=4;overflow=hidden;points=[[0,0.5],[1,0.5]];portConstraint=eastwest;rotatable=0;whiteSpace=wrap;html=1;fontSize=18;" vertex="1" parent="zb_-WWk2M0aDRhid1Z1n-64">
          <mxGeometry y="90" width="360" height="30" as="geometry" />
        </mxCell>
        <mxCell id="-TsuRlC8lxTKwq09Kx47-9" value="Kto (nazwaUżytkownika)" style="text;strokeColor=none;fillColor=none;align=left;verticalAlign=middle;spacingLeft=4;spacingRight=4;overflow=hidden;points=[[0,0.5],[1,0.5]];portConstraint=eastwest;rotatable=0;whiteSpace=wrap;html=1;fontSize=18;" vertex="1" parent="zb_-WWk2M0aDRhid1Z1n-64">
          <mxGeometry y="120" width="360" height="30" as="geometry" />
        </mxCell>
        <mxCell id="zb_-WWk2M0aDRhid1Z1n-65" value="dokument (numer + Data)" style="text;strokeColor=none;fillColor=none;align=left;verticalAlign=middle;spacingLeft=4;spacingRight=4;overflow=hidden;points=[[0,0.5],[1,0.5]];portConstraint=eastwest;rotatable=0;whiteSpace=wrap;html=1;fontSize=18;" vertex="1" parent="zb_-WWk2M0aDRhid1Z1n-64">
          <mxGeometry y="150" width="360" height="30" as="geometry" />
        </mxCell>
        <mxCell id="zb_-WWk2M0aDRhid1Z1n-66" value="Kiedy" style="text;strokeColor=none;fillColor=none;align=left;verticalAlign=middle;spacingLeft=4;spacingRight=4;overflow=hidden;points=[[0,0.5],[1,0.5]];portConstraint=eastwest;rotatable=0;whiteSpace=wrap;html=1;fontSize=18;" vertex="1" parent="zb_-WWk2M0aDRhid1Z1n-64">
          <mxGeometry y="180" width="360" height="30" as="geometry" />
        </mxCell>
        <mxCell id="zb_-WWk2M0aDRhid1Z1n-76" value="opis(surowce + ilość)" style="text;strokeColor=none;fillColor=none;align=left;verticalAlign=middle;spacingLeft=4;spacingRight=4;overflow=hidden;points=[[0,0.5],[1,0.5]];portConstraint=eastwest;rotatable=0;whiteSpace=wrap;html=1;fontSize=18;" vertex="1" parent="zb_-WWk2M0aDRhid1Z1n-64">
          <mxGeometry y="210" width="360" height="30" as="geometry" />
        </mxCell>
        <mxCell id="zb_-WWk2M0aDRhid1Z1n-77" value="ZapotrzebowanieNaSurowce" style="swimlane;fontStyle=0;childLayout=stackLayout;horizontal=1;startSize=30;horizontalStack=0;resizeParent=1;resizeParentMax=0;resizeLast=0;collapsible=1;marginBottom=0;whiteSpace=wrap;html=1;fontSize=24;" vertex="1" parent="1">
          <mxGeometry x="-640" y="555" width="320" height="90" as="geometry" />
        </mxCell>
        <mxCell id="zb_-WWk2M0aDRhid1Z1n-78" value="zapotrzebowanieNaSurowceId" style="text;strokeColor=none;fillColor=none;align=left;verticalAlign=middle;spacingLeft=4;spacingRight=4;overflow=hidden;points=[[0,0.5],[1,0.5]];portConstraint=eastwest;rotatable=0;whiteSpace=wrap;html=1;fontSize=18;" vertex="1" parent="zb_-WWk2M0aDRhid1Z1n-77">
          <mxGeometry y="30" width="320" height="30" as="geometry" />
        </mxCell>
        <mxCell id="zb_-WWk2M0aDRhid1Z1n-80" value="Data" style="text;strokeColor=none;fillColor=none;align=left;verticalAlign=middle;spacingLeft=4;spacingRight=4;overflow=hidden;points=[[0,0.5],[1,0.5]];portConstraint=eastwest;rotatable=0;whiteSpace=wrap;html=1;fontSize=18;" vertex="1" parent="zb_-WWk2M0aDRhid1Z1n-77">
          <mxGeometry y="60" width="320" height="30" as="geometry" />
        </mxCell>
        <mxCell id="zb_-WWk2M0aDRhid1Z1n-81" value="ZapotrzebowanieSurowce" style="swimlane;fontStyle=0;childLayout=stackLayout;horizontal=1;startSize=30;horizontalStack=0;resizeParent=1;resizeParentMax=0;resizeLast=0;collapsible=1;marginBottom=0;whiteSpace=wrap;html=1;fontSize=24;" vertex="1" parent="1">
          <mxGeometry x="-640" y="680" width="295" height="120" as="geometry" />
        </mxCell>
        <mxCell id="zb_-WWk2M0aDRhid1Z1n-82" value="idZapotrzebowanieNaSurowce" style="text;strokeColor=none;fillColor=none;align=left;verticalAlign=middle;spacingLeft=4;spacingRight=4;overflow=hidden;points=[[0,0.5],[1,0.5]];portConstraint=eastwest;rotatable=0;whiteSpace=wrap;html=1;fontSize=18;" vertex="1" parent="zb_-WWk2M0aDRhid1Z1n-81">
          <mxGeometry y="30" width="295" height="30" as="geometry" />
        </mxCell>
        <mxCell id="zb_-WWk2M0aDRhid1Z1n-83" value="idSurowca" style="text;strokeColor=none;fillColor=none;align=left;verticalAlign=middle;spacingLeft=4;spacingRight=4;overflow=hidden;points=[[0,0.5],[1,0.5]];portConstraint=eastwest;rotatable=0;whiteSpace=wrap;html=1;fontSize=18;" vertex="1" parent="zb_-WWk2M0aDRhid1Z1n-81">
          <mxGeometry y="60" width="295" height="30" as="geometry" />
        </mxCell>
        <mxCell id="zb_-WWk2M0aDRhid1Z1n-84" value="ilosc" style="text;strokeColor=none;fillColor=none;align=left;verticalAlign=middle;spacingLeft=4;spacingRight=4;overflow=hidden;points=[[0,0.5],[1,0.5]];portConstraint=eastwest;rotatable=0;whiteSpace=wrap;html=1;fontSize=18;" vertex="1" parent="zb_-WWk2M0aDRhid1Z1n-81">
          <mxGeometry y="90" width="295" height="30" as="geometry" />
        </mxCell>
        <mxCell id="zb_-WWk2M0aDRhid1Z1n-85" style="edgeStyle=orthogonalEdgeStyle;rounded=0;orthogonalLoop=1;jettySize=auto;html=1;entryX=0;entryY=0.5;entryDx=0;entryDy=0;exitX=0;exitY=0.5;exitDx=0;exitDy=0;" edge="1" parent="1" source="zb_-WWk2M0aDRhid1Z1n-82" target="zb_-WWk2M0aDRhid1Z1n-78">
          <mxGeometry relative="1" as="geometry">
            <mxPoint x="-330" y="770" as="sourcePoint" />
            <Array as="points">
              <mxPoint x="-690" y="765" />
              <mxPoint x="-690" y="600" />
            </Array>
          </mxGeometry>
        </mxCell>
        <mxCell id="-TsuRlC8lxTKwq09Kx47-8" style="edgeStyle=orthogonalEdgeStyle;rounded=0;orthogonalLoop=1;jettySize=auto;html=1;entryX=0;entryY=0.5;entryDx=0;entryDy=0;" edge="1" parent="1" source="-TsuRlC8lxTKwq09Kx47-3" target="-TsuRlC8lxTKwq09Kx47-2">
          <mxGeometry relative="1" as="geometry">
            <Array as="points">
              <mxPoint x="-280" y="915" />
              <mxPoint x="-280" y="495" />
            </Array>
          </mxGeometry>
        </mxCell>
        <mxCell id="-TsuRlC8lxTKwq09Kx47-3" value="Użytkownicy" style="swimlane;fontStyle=0;childLayout=stackLayout;horizontal=1;startSize=30;horizontalStack=0;resizeParent=1;resizeParentMax=0;resizeLast=0;collapsible=1;marginBottom=0;whiteSpace=wrap;html=1;fontSize=24;" vertex="1" parent="1">
          <mxGeometry x="-640" y="840" width="320" height="150" as="geometry" />
        </mxCell>
        <mxCell id="-TsuRlC8lxTKwq09Kx47-4" value="uzytkownikId" style="text;strokeColor=none;fillColor=none;align=left;verticalAlign=middle;spacingLeft=4;spacingRight=4;overflow=hidden;points=[[0,0.5],[1,0.5]];portConstraint=eastwest;rotatable=0;whiteSpace=wrap;html=1;fontSize=18;" vertex="1" parent="-TsuRlC8lxTKwq09Kx47-3">
          <mxGeometry y="30" width="320" height="30" as="geometry" />
        </mxCell>
        <mxCell id="-TsuRlC8lxTKwq09Kx47-5" value="nazwaUżytkownika" style="text;strokeColor=none;fillColor=none;align=left;verticalAlign=middle;spacingLeft=4;spacingRight=4;overflow=hidden;points=[[0,0.5],[1,0.5]];portConstraint=eastwest;rotatable=0;whiteSpace=wrap;html=1;fontSize=18;" vertex="1" parent="-TsuRlC8lxTKwq09Kx47-3">
          <mxGeometry y="60" width="320" height="30" as="geometry" />
        </mxCell>
        <mxCell id="-TsuRlC8lxTKwq09Kx47-6" value="login" style="text;strokeColor=none;fillColor=none;align=left;verticalAlign=middle;spacingLeft=4;spacingRight=4;overflow=hidden;points=[[0,0.5],[1,0.5]];portConstraint=eastwest;rotatable=0;whiteSpace=wrap;html=1;fontSize=18;" vertex="1" parent="-TsuRlC8lxTKwq09Kx47-3">
          <mxGeometry y="90" width="320" height="30" as="geometry" />
        </mxCell>
        <mxCell id="-TsuRlC8lxTKwq09Kx47-7" value="hasło" style="text;strokeColor=none;fillColor=none;align=left;verticalAlign=middle;spacingLeft=4;spacingRight=4;overflow=hidden;points=[[0,0.5],[1,0.5]];portConstraint=eastwest;rotatable=0;whiteSpace=wrap;html=1;fontSize=18;" vertex="1" parent="-TsuRlC8lxTKwq09Kx47-3">
          <mxGeometry y="120" width="320" height="30" as="geometry" />
        </mxCell>
      </root>
    </mxGraphModel>
  </diagram>
  <diagram id="ZROuevriaBW6Y0dXUHxM" name="Widoki">
    <mxGraphModel dx="989" dy="539" grid="1" gridSize="10" guides="1" tooltips="1" connect="1" arrows="1" fold="1" page="1" pageScale="1" pageWidth="827" pageHeight="1169" math="0" shadow="0">
      <root>
        <mxCell id="0" />
        <mxCell id="1" parent="0" />
        <mxCell id="pSI4Au9821QHUaDyzRGD-1" value="" style="rounded=0;whiteSpace=wrap;html=1;fillColor=none;" vertex="1" parent="1">
          <mxGeometry x="120" y="240" width="640" height="90" as="geometry" />
        </mxCell>
        <mxCell id="pSI4Au9821QHUaDyzRGD-2" value="&lt;div&gt;Surowiec A&lt;/div&gt;&lt;div&gt;&lt;b&gt;&lt;font style=&quot;font-size: 24px;&quot;&gt;23/100&lt;/font&gt;&lt;/b&gt;&lt;br&gt;&lt;/div&gt;" style="rounded=0;whiteSpace=wrap;html=1;fillColor=#d5e8d4;strokeColor=#82b366;" vertex="1" parent="1">
          <mxGeometry x="130" y="255" width="110" height="60" as="geometry" />
        </mxCell>
        <mxCell id="pSI4Au9821QHUaDyzRGD-3" value="&lt;div&gt;Surowiec B&lt;/div&gt;&lt;div&gt;&lt;b&gt;&lt;font style=&quot;font-size: 24px;&quot;&gt;31/100&lt;/font&gt;&lt;/b&gt;&lt;br&gt;&lt;/div&gt;" style="rounded=0;whiteSpace=wrap;html=1;fillColor=#d5e8d4;strokeColor=#82b366;" vertex="1" parent="1">
          <mxGeometry x="250" y="255" width="110" height="60" as="geometry" />
        </mxCell>
        <mxCell id="pSI4Au9821QHUaDyzRGD-4" value="&lt;div&gt;Surowiec C&lt;/div&gt;&lt;div&gt;&lt;b&gt;&lt;font style=&quot;font-size: 24px;&quot;&gt;45/100&lt;/font&gt;&lt;/b&gt;&lt;br&gt;&lt;/div&gt;" style="rounded=0;whiteSpace=wrap;html=1;fillColor=#d5e8d4;strokeColor=#82b366;" vertex="1" parent="1">
          <mxGeometry x="370" y="255" width="110" height="60" as="geometry" />
        </mxCell>
        <mxCell id="pSI4Au9821QHUaDyzRGD-5" value="Zapotrzebowanie surowców" style="rounded=1;whiteSpace=wrap;html=1;fontStyle=1;fontSize=14;fillColor=#d5e8d4;strokeColor=#82b366;" vertex="1" parent="1">
          <mxGeometry x="490" y="255" width="130" height="60" as="geometry" />
        </mxCell>
        <mxCell id="pSI4Au9821QHUaDyzRGD-6" value="Operacje na surowcach" style="rounded=1;whiteSpace=wrap;html=1;fontStyle=1;fontSize=14;fillColor=#d5e8d4;strokeColor=#82b366;" vertex="1" parent="1">
          <mxGeometry x="630" y="255" width="120" height="60" as="geometry" />
        </mxCell>
        <mxCell id="iEkAMSs8EuzBZnqKFcWS-1" value="Listy przewozowe" style="rounded=0;whiteSpace=wrap;html=1;fontSize=24;fillColor=#d5e8d4;strokeColor=#82b366;" vertex="1" parent="1">
          <mxGeometry x="120" y="40" width="330" height="190" as="geometry" />
        </mxCell>
        <mxCell id="iEkAMSs8EuzBZnqKFcWS-2" value="Zapotrzebowania na surowce" style="rounded=0;whiteSpace=wrap;html=1;fontSize=24;fillColor=#d5e8d4;strokeColor=#82b366;" vertex="1" parent="1">
          <mxGeometry x="460" y="40" width="300" height="190" as="geometry" />
        </mxCell>
        <mxCell id="T4aMcgbflMz8iLYn60Hr-1" value="Zamówienia na surowce" style="rounded=0;whiteSpace=wrap;html=1;fontSize=24;fillColor=#d5e8d4;strokeColor=#82b366;" vertex="1" parent="1">
          <mxGeometry x="120" y="340" width="640" height="190" as="geometry" />
        </mxCell>
        <mxCell id="bAZyjLirah8l4YCemiWC-1" value="" style="rounded=0;whiteSpace=wrap;html=1;fillColor=none;" vertex="1" parent="1">
          <mxGeometry x="800" y="240" width="640" height="90" as="geometry" />
        </mxCell>
        <mxCell id="bAZyjLirah8l4YCemiWC-2" value="&lt;div&gt;Surowiec A&lt;/div&gt;&lt;div&gt;&lt;b&gt;&lt;font style=&quot;font-size: 24px;&quot;&gt;23/100&lt;/font&gt;&lt;/b&gt;&lt;br&gt;&lt;/div&gt;" style="rounded=0;whiteSpace=wrap;html=1;fillColor=#d5e8d4;strokeColor=#82b366;" vertex="1" parent="1">
          <mxGeometry x="810" y="255" width="110" height="60" as="geometry" />
        </mxCell>
        <mxCell id="bAZyjLirah8l4YCemiWC-3" value="&lt;div&gt;Surowiec B&lt;/div&gt;&lt;div&gt;&lt;b&gt;&lt;font style=&quot;font-size: 24px;&quot;&gt;31/100&lt;/font&gt;&lt;/b&gt;&lt;br&gt;&lt;/div&gt;" style="rounded=0;whiteSpace=wrap;html=1;fillColor=#d5e8d4;strokeColor=#82b366;" vertex="1" parent="1">
          <mxGeometry x="930" y="255" width="110" height="60" as="geometry" />
        </mxCell>
        <mxCell id="bAZyjLirah8l4YCemiWC-4" value="&lt;div&gt;Surowiec C&lt;/div&gt;&lt;div&gt;&lt;b&gt;&lt;font style=&quot;font-size: 24px;&quot;&gt;45/100&lt;/font&gt;&lt;/b&gt;&lt;br&gt;&lt;/div&gt;" style="rounded=0;whiteSpace=wrap;html=1;fillColor=#d5e8d4;strokeColor=#82b366;" vertex="1" parent="1">
          <mxGeometry x="1050" y="255" width="110" height="60" as="geometry" />
        </mxCell>
        <mxCell id="bAZyjLirah8l4YCemiWC-5" value="Zapotrzebowanie surowców" style="rounded=1;whiteSpace=wrap;html=1;fontStyle=1;fontSize=14;" vertex="1" parent="1">
          <mxGeometry x="1170" y="255" width="130" height="60" as="geometry" />
        </mxCell>
        <mxCell id="bAZyjLirah8l4YCemiWC-6" value="Operacje na surowcach" style="rounded=1;whiteSpace=wrap;html=1;fontStyle=1;fontSize=14;fillColor=#d5e8d4;strokeColor=#82b366;" vertex="1" parent="1">
          <mxGeometry x="1310" y="255" width="120" height="60" as="geometry" />
        </mxCell>
        <mxCell id="bAZyjLirah8l4YCemiWC-7" value="Listy przewozowe" style="rounded=0;whiteSpace=wrap;html=1;fontSize=24;" vertex="1" parent="1">
          <mxGeometry x="800" y="40" width="330" height="190" as="geometry" />
        </mxCell>
        <mxCell id="bAZyjLirah8l4YCemiWC-8" value="Zapotrzebowania na surowce" style="rounded=0;whiteSpace=wrap;html=1;fontSize=24;" vertex="1" parent="1">
          <mxGeometry x="1140" y="40" width="300" height="190" as="geometry" />
        </mxCell>
        <mxCell id="bAZyjLirah8l4YCemiWC-9" value="Zamówienia na surowce" style="rounded=0;whiteSpace=wrap;html=1;fontSize=24;" vertex="1" parent="1">
          <mxGeometry x="800" y="340" width="640" height="190" as="geometry" />
        </mxCell>
        <mxCell id="bAZyjLirah8l4YCemiWC-10" value="Widok magazyniera" style="text;html=1;align=center;verticalAlign=middle;whiteSpace=wrap;rounded=0;fontSize=24;fontStyle=1" vertex="1" parent="1">
          <mxGeometry x="120" width="640" height="30" as="geometry" />
        </mxCell>
        <mxCell id="bAZyjLirah8l4YCemiWC-11" value="Widok menagera" style="text;html=1;align=center;verticalAlign=middle;whiteSpace=wrap;rounded=0;fontSize=24;fontStyle=1" vertex="1" parent="1">
          <mxGeometry x="800" width="640" height="30" as="geometry" />
        </mxCell>
      </root>
    </mxGraphModel>
  </diagram>
</mxfile>
